<?xml version="1.0" encoding="UTF-8"?>
<svg width="39px" height="39px" viewBox="0 0 39 39" version="1.1" xmlns="http://www.w3.org/2000/svg" xmlns:xlink="http://www.w3.org/1999/xlink">
    <!-- Generator: Sketch 41.2 (35397) - http://www.bohemiancoding.com/sketch -->
    <title>1</title>
    <desc>Created with Sketch.</desc>
    <defs></defs>
    <g id="Page-1" stroke="none" stroke-width="1" fill="none" fill-rule="evenodd">
        <g id="1" transform="translate(1.000000, 0.000000)">
            <g id="Group-5" transform="translate(0.000000, 0.595200)">
                <path d="M35.6006,18.4551 C35.6006,28.1471 27.7436,36.0051 18.0506,36.0051 C8.3576,36.0051 0.4996,28.1471 0.4996,18.4551 C0.4996,8.7621 8.3576,0.9051 18.0506,0.9051 C27.7436,0.9051 35.6006,8.7621 35.6006,18.4551" id="Fill-1" fill="#455A64"></path>
                <path d="M35.6006,18.4551 C35.6006,28.1471 27.7436,36.0051 18.0506,36.0051 C8.3576,36.0051 0.4996,28.1471 0.4996,18.4551 C0.4996,8.7621 8.3576,0.9051 18.0506,0.9051 C27.7436,0.9051 35.6006,8.7621 35.6006,18.4551 Z" id="Stroke-3" stroke="#263238" stroke-width="3"></path>
            </g>
            <text font-family="Montserrat-Regular, Montserrat" font-size="20" font-weight="normal" fill="#FFFFFF">
                <tspan x="14.7305" y="26.1064469">1</tspan>
            </text>
        </g>
    </g>
</svg>