<?xml version="1.0" encoding="utf-8"?>
<!-- Generator: Adobe Illustrator 19.1.0, SVG Export Plug-In . SVG Version: 6.00 Build 0)  -->
<!DOCTYPE svg PUBLIC "-//W3C//DTD SVG 1.1//EN" "http://www.w3.org/Graphics/SVG/1.1/DTD/svg11.dtd">
<svg version="1.1" id="Layer_1" xmlns="http://www.w3.org/2000/svg" xmlns:xlink="http://www.w3.org/1999/xlink" x="0px" y="0px"
	 width="16.4px" height="16.5px" viewBox="0 0 16.4 16.5" style="enable-background:new 0 0 16.4 16.5;" xml:space="preserve">
<style type="text/css">
	.st0{opacity:0.3;fill:#36464E;}
	.st1{fill:#36464E;}
	.st2{fill:#EEEEEE;}
	.st3{fill:#78909C;}
	.st4{fill:#263238;}
	.st5{fill:#FFFFFF;}
	.st6{fill:#455A64;}
	.st7{fill:none;stroke:#263238;stroke-width:2;stroke-miterlimit:10;}
	.st8{fill:#455A64;stroke:#263238;stroke-width:3;stroke-miterlimit:10;}
</style>
<g>
	<g>
		<path class="st5" d="M16.4,1.1l-1-1c-0.1-0.1-0.7,0-0.9,0.2l-4.5,5c0,0,0.1,0.1,0.1,0.1l1,1c0,0,0.1,0.1,0.1,0.1l5-4.6
			C16.3,1.7,16.5,1.2,16.4,1.1z"/>
		<path class="st5" d="M1.2,12.2c-0.6,0.9-1.4,3.9-1.1,4.2c0.3,0.3,3.3-0.6,4.2-1.1c0.9-0.5,4.3-2.8,4.5-3.3
			c0.1-0.3-0.1-1.6-0.3-2.7L8.4,8.5L9.9,7l0.3,0.3c0.1,0.1,0.4,0.1,0.5,0l0.1-0.1c0.1-0.1,0.1-0.4,0-0.5l-1-1
			c-0.1-0.1-0.4-0.1-0.5,0L9.2,5.7c-0.1,0.1-0.1,0.4,0,0.5l0.3,0.3L7.9,8.1L7.1,8C6,7.8,4.6,7.6,4.4,7.7C4,7.9,1.6,11.3,1.2,12.2z"
			/>
	</g>
</g>
</svg>
