<?xml version="1.0" encoding="utf-8"?>
<!-- Generator: Adobe Illustrator 19.1.0, SVG Export Plug-In . SVG Version: 6.00 Build 0)  -->
<!DOCTYPE svg PUBLIC "-//W3C//DTD SVG 1.1//EN" "http://www.w3.org/Graphics/SVG/1.1/DTD/svg11.dtd">
<svg version="1.1" id="Layer_1" xmlns="http://www.w3.org/2000/svg" xmlns:xlink="http://www.w3.org/1999/xlink" x="0px" y="0px"
	 width="14.2px" height="14.1px" viewBox="0 0 14.2 14.1" style="enable-background:new 0 0 14.2 14.1;" xml:space="preserve">
<style type="text/css">
	.st0{opacity:0.3;fill:#36464E;}
	.st1{fill:#36464E;}
	.st2{fill:#EEEEEE;}
	.st3{fill:#78909C;}
	.st4{fill:#263238;}
	.st5{fill:#FFFFFF;}
	.st6{fill:#455A64;}
	.st7{fill:none;stroke:#263238;stroke-width:2;stroke-miterlimit:10;}
	.st8{fill:#455A64;stroke:#263238;stroke-width:3;stroke-miterlimit:10;}
</style>
<g>
	<rect x="0.8" y="11.3" class="st5" width="12.3" height="1"/>
	<path class="st5" d="M5.2,11.5c0-0.8-0.4-1.5-1-2l2.2-4.4c0.2,0.1,0.4,0.1,0.7,0.1c0.3,0,0.5,0,0.7-0.1l2.2,4.4
		c-0.6,0.5-1,1.2-1,2.1c0,1.4,1.2,2.6,2.6,2.6c1.4,0,2.6-1.2,2.6-2.6c0-1.4-1.2-2.6-2.6-2.6c-0.2,0-0.5,0-0.7,0.1L8.7,4.6
		c0.6-0.5,1-1.2,1-2C9.7,1.2,8.5,0,7.1,0C5.7,0,4.5,1.2,4.5,2.6c0,0.8,0.4,1.6,1,2.1L3.3,9C3.1,9,2.8,8.9,2.6,8.9
		C1.2,8.9,0,10.1,0,11.5c0,1.4,1.2,2.6,2.6,2.6C4,14.1,5.2,12.9,5.2,11.5z"/>
</g>
</svg>
