<?xml version="1.0" encoding="utf-8"?>
<!-- Generator: Adobe Illustrator 19.1.0, SVG Export Plug-In . SVG Version: 6.00 Build 0)  -->
<!DOCTYPE svg PUBLIC "-//W3C//DTD SVG 1.1//EN" "http://www.w3.org/Graphics/SVG/1.1/DTD/svg11.dtd">
<svg version="1.1" id="Layer_1" xmlns="http://www.w3.org/2000/svg" xmlns:xlink="http://www.w3.org/1999/xlink" x="0px" y="0px"
	 width="6.4px" height="14px" viewBox="0 0 6.4 14" style="enable-background:new 0 0 6.4 14;" xml:space="preserve">
<style type="text/css">
	.st0{opacity:0.3;fill:#36464E;}
	.st1{fill:#36464E;}
	.st2{fill:#EEEEEE;}
	.st3{fill:#78909C;}
	.st4{fill:#263238;}
	.st5{fill:#FFFFFF;}
	.st6{fill:#455A64;}
	.st7{fill:none;stroke:#263238;stroke-width:2;stroke-miterlimit:10;}
	.st8{fill:#455A64;stroke:#263238;stroke-width:3;stroke-miterlimit:10;}
</style>
<g>
	<path class="st5" d="M4.9,0c0.9,0,1.4,0.6,1.4,1.4c0,0.9-0.8,1.8-1.9,1.8C3.6,3.1,3,2.6,3.1,1.7C3.1,1,3.7,0,4.9,0z M2,14
		c-0.7,0-1.3-0.5-0.8-2.5L2.1,8c0.1-0.6,0.2-0.8,0-0.8C1.9,7.2,0.9,7.6,0.4,8L0,7.3c1.8-1.5,3.9-2.4,4.8-2.4c0.7,0,0.9,0.9,0.5,2.3
		l-1,3.7c-0.2,0.7-0.1,0.9,0.1,0.9c0.2,0,1-0.3,1.7-0.8l0.4,0.6C4.7,13.3,2.8,14,2,14z"/>
</g>
</svg>
