<?xml version="1.0" encoding="utf-8"?>
<!-- Generator: Adobe Illustrator 19.1.0, SVG Export Plug-In . SVG Version: 6.00 Build 0)  -->
<!DOCTYPE svg PUBLIC "-//W3C//DTD SVG 1.1//EN" "http://www.w3.org/Graphics/SVG/1.1/DTD/svg11.dtd">
<svg version="1.1" id="Layer_1" xmlns="http://www.w3.org/2000/svg" xmlns:xlink="http://www.w3.org/1999/xlink" x="0px" y="0px"
	 width="33.2px" height="44.3px" viewBox="0 0 33.2 44.3" style="enable-background:new 0 0 33.2 44.3;" xml:space="preserve">
<style type="text/css">
	.st0{opacity:0.3;fill:#36464E;}
	.st1{fill:#36464E;}
	.st2{fill:#EEEEEE;}
	.st3{fill:#78909C;}
	.st4{fill:#263238;}
	.st5{fill:#FFFFFF;}
	.st6{fill:#455A64;}
	.st7{fill:none;stroke:#263238;stroke-width:2;stroke-miterlimit:10;}
	.st8{fill:#455A64;stroke:#263238;stroke-width:3;stroke-miterlimit:10;}
</style>
<g>
	<g>
		<path class="st6" d="M32.2,16.6c0,3.5-1.2,6.7-3.1,9.4L16.6,42.6L4.1,26c-2-2.6-3.1-5.8-3.1-9.4C1,8,8,1,16.6,1
			C25.2,1,32.2,8,32.2,16.6z"/>
	</g>
	<path class="st7" d="M32.2,16.6c0,3.5-1.2,6.7-3.1,9.4L16.6,42.6L4.1,26c-2-2.6-3.1-5.8-3.1-9.4C1,8,8,1,16.6,1
		C25.2,1,32.2,8,32.2,16.6z"/>
</g>
</svg>
