<?xml version="1.0" encoding="utf-8"?>
<!-- Generator: Adobe Illustrator 19.1.0, SVG Export Plug-In . SVG Version: 6.00 Build 0)  -->
<!DOCTYPE svg PUBLIC "-//W3C//DTD SVG 1.1//EN" "http://www.w3.org/Graphics/SVG/1.1/DTD/svg11.dtd">
<svg version="1.1" id="Layer_1" xmlns="http://www.w3.org/2000/svg" xmlns:xlink="http://www.w3.org/1999/xlink" x="0px" y="0px"
	 width="18.1px" height="17.9px" viewBox="0 0 18.1 17.9" style="enable-background:new 0 0 18.1 17.9;" xml:space="preserve">
<style type="text/css">
	.st0{opacity:0.3;fill:#36464E;}
	.st1{fill:#36464E;}
	.st2{fill:#EEEEEE;}
	.st3{fill:#78909C;}
	.st4{fill:#263238;}
	.st5{fill:#FFFFFF;}
	.st6{fill:#455A64;}
	.st7{fill:none;stroke:#263238;stroke-width:2;stroke-miterlimit:10;}
	.st8{fill:#455A64;stroke:#263238;stroke-width:3;stroke-miterlimit:10;}
</style>
<path class="st5" d="M18.1,16.4l-3.6-3.6l-1.6-1.6c0.8-1.2,1.3-2.6,1.3-4.1c0-3.9-3.2-7.1-7.1-7.1C3.2,0,0,3.2,0,7.1
	c0,3.9,3.2,7.1,7.1,7.1c1.6,0,3.2-0.6,4.4-1.5l2.8,2.8c0,0,0.1,0.1,0.1,0.1l2.3,2.3L18.1,16.4z M7.1,12.6c-3,0-5.5-2.4-5.5-5.5
	c0-3,2.4-5.5,5.5-5.5c3,0,5.5,2.4,5.5,5.5c0,1.3-0.4,2.4-1.1,3.3c-0.2,0.3-0.5,0.6-0.8,0.8C9.7,12.1,8.5,12.6,7.1,12.6z"/>
</svg>
