<svg id="Layer_1" data-name="Layer 1" xmlns="http://www.w3.org/2000/svg" viewBox="0 0 13.45 13.41"><defs><style>.cls-1{fill:#eee;}</style></defs><title>foursquare</title><path class="cls-1" d="M1683,899.6a0.41,0.41,0,0,0-.31-0.13,0.38,0.38,0,0,0-.31.13l-1.06,1a0.41,0.41,0,0,0-.12.3,0.45,0.45,0,0,0,.12.31l3.55,3.56a0.43,0.43,0,0,0,.26.12h0.05a0.48,0.48,0,0,0,.32-0.13l6.37-6.37a0.47,0.47,0,0,0,0-.63l-1-1a0.44,0.44,0,0,0-.63,0l-5,5Z" transform="translate(-1678.58 -894.42)"/><path class="cls-1" d="M1691.51,900l-5.4,5.4a1.14,1.14,0,0,1-.86.36H1685l-0.05,0a1.31,1.31,0,0,1-.58-0.32l-3.54-3.56a1.19,1.19,0,0,1-.37-0.87,1.15,1.15,0,0,1,.37-0.86l1-1.06a1.22,1.22,0,0,1,1.74,0l1.64,1.64,3.47-3.48-2.31-2.31a1.58,1.58,0,0,0-2.24,0L1679,900a1.58,1.58,0,0,0,0,2.23l5.13,5.13a1.53,1.53,0,0,0,1.12.46,1.5,1.5,0,0,0,1.11-.46l5.13-5.12a1.58,1.58,0,0,0,0-2.23Z" transform="translate(-1678.58 -894.42)"/></svg>