<svg id="Layer_1" data-name="Layer 1" xmlns="http://www.w3.org/2000/svg" viewBox="0 0 14.68 15.1"><defs><style>.cls-1{fill:#eee;}</style></defs><title>google-plus</title><path class="cls-1" d="M1689.83,843.86h-3.6a5.38,5.38,0,0,0-3.72,1.18,3.55,3.55,0,0,0-1.26,2.64,3.11,3.11,0,0,0,3.26,3.09c0.2,0,.43,0,0.63,0l0,0.07a1.65,1.65,0,0,0-.17.7,2,2,0,0,0,.55,1.29l0,0h-0.06a8.37,8.37,0,0,0-3.69.9,2.82,2.82,0,0,0-1.51,2.4c0,1.4,1.31,2.82,4.23,2.82,3.39,0,5.17-1.87,5.17-3.72a3.44,3.44,0,0,0-1.65-2.76l-0.72-.56a1.06,1.06,0,0,1-.5-0.84,1.34,1.34,0,0,1,.52-0.93l0,0a3.34,3.34,0,0,0,1.65-2.8,3.3,3.3,0,0,0-1.39-2.66h1.24l1-.65a0.08,0.08,0,0,0,0-.09A0.08,0.08,0,0,0,1689.83,843.86Zm-4.37,14.27c-2.07,0-3.46-1-3.46-2.4a2.14,2.14,0,0,1,1.69-2,7.92,7.92,0,0,1,2.07-.32,3,3,0,0,1,.45,0c1.45,1,2.14,1.57,2.14,2.6C1688.35,857.32,1687.24,858.14,1685.46,858.14Zm0-7.92c-1.74,0-2.46-2.28-2.46-3.5a2.24,2.24,0,0,1,.43-1.46,1.82,1.82,0,0,1,1.38-.65c1.59,0,2.48,2.14,2.48,3.62A1.8,1.8,0,0,1,1685.44,850.22Z" transform="translate(-1680.27 -843.86)"/><path class="cls-1" d="M1694.88,850.91H1693V849a0.08,0.08,0,0,0-.08-0.08h-0.82a0.08,0.08,0,0,0-.08.08v1.89h-1.89a0.08,0.08,0,0,0-.08.08v0.83a0.08,0.08,0,0,0,.08.08H1692v1.9a0.08,0.08,0,0,0,.08.08h0.82a0.08,0.08,0,0,0,.08-0.08v-1.9h1.9a0.08,0.08,0,0,0,.08-0.08V851A0.08,0.08,0,0,0,1694.88,850.91Z" transform="translate(-1680.27 -843.86)"/></svg>