<svg id="Layer_1" data-name="Layer 1" xmlns="http://www.w3.org/2000/svg" viewBox="0 0 12.85 12.85"><defs><style>.cls-1{fill:#eee;}</style></defs><title>link</title><path class="cls-1" d="M1681.11,712.51a2.34,2.34,0,0,1,3.3,0l2.13,2.13,1-1-2.13-2.13a3.77,3.77,0,0,0-5.33,5.32l2.13,2.13,1-1-2.13-2.13A2.34,2.34,0,0,1,1681.11,712.51Zm1.65,2.72,4.26,4.26,1.06-1.07-4.26-4.26Zm8,1.6-2.13-2.13-1,1,2.13,2.13a2.33,2.33,0,1,1-3.3,3.3L1684.3,719l-1,1,2.13,2.13A3.76,3.76,0,1,0,1690.74,716.82Z" transform="translate(-1678.99 -710.39)"/></svg>