<svg id="Layer_1" data-name="Layer 1" xmlns="http://www.w3.org/2000/svg" viewBox="0 0 13.26 10.78"><defs><style>.cls-1{fill:#eee;}</style></defs><title>twitter</title><path class="cls-1" d="M1691,803a5.34,5.34,0,0,1-1.56.43,2.71,2.71,0,0,0,1.2-1.51,5.41,5.41,0,0,1-1.73.66,2.72,2.72,0,0,0-4.71,1.86,2.66,2.66,0,0,0,.07.62,7.71,7.71,0,0,1-5.61-2.84,2.72,2.72,0,0,0,.84,3.63,2.7,2.7,0,0,1-1.23-.34v0a2.72,2.72,0,0,0,2.18,2.67,2.77,2.77,0,0,1-.72.1,2.69,2.69,0,0,1-.51,0,2.72,2.72,0,0,0,2.54,1.89,5.45,5.45,0,0,1-3.38,1.16,6,6,0,0,1-.65,0,7.74,7.74,0,0,0,11.91-6.52c0-.12,0-0.24,0-0.35A5.56,5.56,0,0,0,1691,803Z" transform="translate(-1677.73 -801.69)"/></svg>